<svg width="128" height="128" viewBox="0 0 128 128" fill="none" xmlns="http://www.w3.org/2000/svg">
<path d="M18.5119 97.0664C16.5753 94.7817 15.903 91.8992 14.6752 89.3117C12.9089 85.5896 11.3247 81.8085 10.78 77.6509C10.5819 76.1394 10.3712 74.6188 10.3354 73.098C10.2905 71.1871 9.74159 69.3824 9.47393 67.5214C9.43709 67.2652 9.35232 67.0121 9.34687 66.7562C9.2928 64.2173 9.1984 61.6705 9.21911 59.1408C9.26004 54.1403 9.40718 49.1259 10.8783 44.2691C11.5896 41.9208 11.5519 39.3925 12.3064 37.0266C13.1221 34.4688 13.9829 31.921 14.486 29.2609C14.6317 28.4906 15.2401 27.9085 15.7095 27.3114C16.8175 25.9022 18.022 24.565 19.5282 23.6124C21.0207 22.6685 22.6477 22.566 24.3211 23.0615C25.7329 23.4795 26.3579 24.6814 25.8394 26.1349C25.59 26.8339 25.2491 27.4999 24.9204 28.1652C24.3771 29.2652 23.6764 30.2073 23.5208 31.5831C23.376 32.8635 22.3106 33.9502 21.8389 35.2396C21.5745 35.9621 21.2039 36.6588 21.0377 37.4167C20.7504 38.7265 19.7908 39.7978 19.6993 41.1317C19.5111 43.8728 19.0104 46.557 18.2401 49.1548C17.3818 52.0492 17.7991 55.0236 17.4255 57.9447C17.199 59.7158 17.8691 61.5503 17.7133 63.3832C17.5061 65.8218 18.0356 68.1822 18.5201 70.5225C18.8599 72.1638 19.4915 73.7475 20.0765 75.3231C20.6407 76.8426 21.2225 78.3488 21.5082 79.9596C21.5418 80.1495 21.614 80.337 21.6956 80.5117C23.1697 83.6683 24.4976 86.9124 26.1656 89.9536C27.989 93.2779 30.0059 96.4834 32.5748 99.3012C34.6211 101.546 36.707 103.587 39.4777 104.866C40.8792 105.513 42.1804 106.533 43.3238 107.618C44.8837 109.098 46.787 109.584 48.6826 110.243C51.6357 111.271 54.6978 111.614 57.7431 112.097C58.3367 112.191 58.9301 112.253 59.5124 112.126C60.3235 111.948 61.118 111.987 61.9301 112.109C63.3702 112.324 64.7901 112.202 66.1873 111.75C67.8834 111.201 69.5828 110.945 71.3995 110.904C73.3788 110.859 75.4007 110.295 77.3155 109.576C81.248 108.101 84.8811 106.009 88.2641 103.479C89.7761 102.348 91.1171 100.962 92.4939 99.6443C93.0278 99.1333 93.5698 98.6446 94.1912 98.2712C95.6203 97.4123 96.525 96.0275 97.4633 94.7011C99.0346 92.48 100.763 90.3849 102.044 87.9311C103.295 85.5353 104.88 83.3285 106.122 80.9286C107.721 77.8385 109.562 74.6973 109.92 71.2244C110.207 68.4495 110.884 65.7565 111.121 62.9744C111.322 60.617 111.376 58.3361 111.08 55.9945C110.913 54.6745 110.516 53.3899 110.5 52.0557C110.468 49.4223 109.563 47.0382 108.673 44.6366C108.231 43.4465 107.389 42.5608 106.71 41.5565C104.281 37.966 101.585 34.5886 98.9626 31.1531C98.2987 30.2834 97.5418 29.5055 96.5785 28.9775C94.5235 27.8513 92.7484 26.278 90.7776 25.0139C88.5037 23.5553 86.1192 22.5214 83.4915 21.8468C80.892 21.1794 78.2378 20.8815 75.6411 20.184C72.3366 19.2963 68.9447 19.4391 65.55 20.2422C62.9546 20.8562 60.6057 22.2437 57.949 22.6147C57.3544 22.6977 56.7436 23.0244 56.2406 23.3893C53.61 25.2974 50.5092 26.4799 48.2835 29.0184C47.8434 29.5204 47.325 29.9463 46.9293 30.5011C45.8281 32.0451 44.575 33.3742 43.0025 34.4705C41.1645 35.7519 40.0114 37.7294 38.9942 39.7954C37.5372 42.755 36.141 45.7029 35.6802 49.0558C34.9643 54.2645 34.6215 59.4425 35.9541 64.6164C36.5751 67.0276 36.5764 69.5564 37.1985 71.9923C38.147 75.7065 39.7876 78.8949 42.4283 81.6271C44.497 83.7674 46.7092 85.5459 49.3509 86.8587C50.7572 87.5576 51.9026 88.8046 53.3296 89.5682C55.5545 90.7589 57.8015 91.9161 60.1727 92.7229C62.2758 93.4384 64.4755 93.344 66.6545 92.946C67.2666 92.8342 67.9029 92.8599 68.5111 92.7335C72.0694 91.9942 75.0982 90.1749 77.8428 87.7559C79.4499 86.3395 81.2929 85.2903 83.1703 84.3237C83.9507 83.9219 84.593 83.4459 85.0527 82.6451C85.6301 81.6394 86.6863 81.0279 87.1938 79.9431C88.0997 78.0069 89.2294 76.2126 90.425 74.4616C91.6058 72.7323 92.0078 70.7823 92.0963 68.6893C92.1927 66.4106 92.2202 64.166 91.7508 61.9092C91.5035 60.7201 91.6728 59.452 91.5974 58.2157C91.4627 56.01 90.3235 54.3039 89.4225 52.4607C88.5401 50.6556 87.3342 49.0711 86.1913 47.4562C85.1742 46.0191 84.3444 44.4376 83.275 43.0678C80.7382 39.8182 77.3093 38.1534 73.3692 37.5525C70.6878 37.1436 67.9989 36.7741 65.2947 36.6335C63.2992 36.5299 61.3168 36.6809 59.6668 38.154C59.2512 38.525 58.6609 38.6741 58.1833 38.9802C54.4932 41.3459 51.5791 44.4478 50.0912 48.7625C49.5905 50.2143 49.5245 51.8229 49.1199 53.3186C48.5269 55.5106 48.4294 57.7294 48.4844 59.979C48.5007 60.6466 48.5759 61.3074 48.902 61.8617C49.3809 62.6757 49.4971 63.5766 49.5896 64.4723C49.667 65.2221 49.9149 65.8659 50.3454 66.4318C51.8813 68.4513 53.5674 70.3157 55.4857 71.9567C56.9579 73.216 58.3226 74.5904 60.1507 75.3436C62.5689 76.3398 65.0534 76.0324 67.5332 75.9396C67.796 75.9297 68.0631 75.7497 68.3097 75.6125C72.1659 73.4674 74.6277 70.1915 75.9836 65.8457C76.7734 63.3144 77.1067 60.6616 76.5627 58.2555C75.9454 55.5252 74.4227 52.9855 71.937 51.3821C71.4213 51.0494 70.8694 50.7978 70.2833 50.7338C68.9365 50.5868 67.5795 50.6977 66.3317 51.2349C65.1832 51.7293 64.6923 52.858 64.6619 54.0791C64.6356 55.1397 65.2885 55.926 66.2043 56.3357C67.148 56.7577 68.0334 57.3414 69.0523 57.5641C69.4009 57.6403 69.5955 57.8511 69.7556 58.1433C70.7727 60.0004 70.7343 61.8747 69.9864 63.837C69.4195 65.3241 68.0699 65.8027 67.0002 66.6481C66.8728 66.7487 66.6152 66.766 66.4542 66.7095C64.7448 66.1096 62.8965 66.5872 61.1937 65.9595C60.9892 65.8841 60.7502 65.8624 60.5816 65.7366C59.3129 64.7897 58.0498 63.834 56.8019 62.8575C56.1925 62.3807 55.903 61.7144 55.8716 60.9137C55.8335 59.9412 55.1448 59.215 54.9603 58.272C54.4784 55.8085 54.7414 53.5055 55.9824 51.328C56.4283 50.5456 56.7224 49.6607 57.2186 48.9194C58.5763 46.8916 60.1787 45.0416 62.5696 44.4625C64.249 44.0557 65.9936 43.7412 67.7584 43.8917C68.9961 43.9973 70.051 44.7359 71.2537 44.9576C73.0578 45.29 74.6872 46.1444 76.3423 46.892C78.0602 47.668 79.1398 49.2412 80.2852 50.7007C80.581 51.0776 80.8031 51.5165 81.0875 51.9041C82.9755 54.4778 83.9101 57.4044 84.3785 60.5948C84.5975 62.087 84.2297 63.4233 84.0592 64.8137C83.9644 65.5869 84.0533 66.3703 83.8406 67.1374C83.1443 69.6481 81.9598 71.8604 80.2044 73.724C79.4398 74.5358 78.6477 75.3007 77.9931 76.2343C76.9244 77.7585 75.5012 78.9256 73.8281 79.6324C71.2829 80.7077 68.6809 81.6516 65.9785 82.2035C64.2228 82.5621 62.4302 82.3991 60.6544 82.3053C59.7849 82.2593 58.9223 82.0458 58.0535 82.0195C56.972 81.9868 56.1704 81.4038 55.3791 80.758C53.1951 78.9756 51.1969 76.9479 48.7547 75.5061C47.6234 74.8382 46.9809 73.5777 46.1996 72.5525C44.7587 70.6616 43.1459 68.8389 42.5066 66.3961C42.02 64.5367 41.7319 62.652 41.6069 60.7316C41.533 59.5971 41.4271 58.4624 41.2764 57.3364C40.947 54.874 41.7068 52.5672 42.1771 50.222C42.4303 48.9597 42.7846 47.7194 43.1005 46.4711C43.1397 46.316 43.2017 46.1574 43.2893 46.0268C45.1949 43.1847 46.6394 39.9948 49.1631 37.6164C49.621 37.1849 49.9713 36.6256 50.354 36.1112C51.8491 34.1016 53.9874 33.098 56.0988 32.0163C58.9498 30.5555 62.0396 30.1535 65.1007 29.5453C68.873 28.7958 72.626 28.8567 76.307 29.8378C78.8265 30.5092 81.2947 31.4227 83.0505 33.7492C83.8184 34.7666 84.9474 35.5933 86.0667 36.1937C88.2164 37.347 89.6032 39.2062 90.9752 41.1606C92.9522 43.977 94.9348 46.7844 96.3251 49.9811C97.2701 52.1541 97.6887 54.5084 98.394 56.7644C99.4535 60.1531 99.6438 63.6721 99.63 67.1749C99.6209 69.4957 99.5793 71.8368 99.1394 74.1664C98.8179 75.8684 98.2946 77.3463 97.4119 78.8171C96.1405 80.9356 94.7201 82.9765 93.554 85.125C92.2663 87.4976 90.1211 88.9623 88.7093 91.1478C88.1593 91.9993 87.2151 92.6481 86.3336 93.1773C84.4112 94.3313 82.619 95.6936 80.7213 96.8742C78.3968 98.3202 75.8282 99.067 73.1309 99.4702C70.0956 99.9239 67.0658 100.23 63.9996 100.188C60.7412 100.143 57.5438 99.5955 54.3689 98.9133C52.9974 98.6186 51.5883 98.565 50.2388 98.1091C49.6733 97.9181 49.0621 97.7899 48.5956 97.4416C46.9482 96.2115 45.1862 95.1427 43.7131 93.6606C42.9047 92.8472 42.0363 92.0966 41.1732 91.345C38.4317 88.9575 36.5658 85.8817 34.8629 82.6738C34.2111 81.446 33.4983 80.259 32.6709 79.1484C32.4608 78.8664 32.2323 78.5722 32.118 78.2437C30.6639 74.066 28.5525 70.1423 27.6124 65.7707C27.3205 64.4135 27.1194 63.0251 27.0337 61.6235C26.9388 60.0718 27.0279 58.5218 26.6761 56.9659C26.3468 55.5098 26.7307 53.9776 26.8713 52.4979C26.9898 51.2509 27.2645 50.0012 27.4409 48.7482C28.1328 43.8341 30.1461 39.4279 32.258 35.0588C32.3987 34.7678 32.5849 34.496 32.6923 34.193C33.704 31.3405 35.5206 29.0899 37.5773 27.0103C38.4297 26.1483 39.1867 25.1995 39.9369 24.2347C40.9238 22.9654 42.249 22.0327 43.5442 21.1488C45.3088 19.9445 46.8785 18.5175 48.435 17.0632C50.1058 15.5021 52.1028 14.4748 54.0403 13.377C54.9133 12.8823 56.0313 12.8984 57.0351 12.6802C58.6256 12.3344 60.205 11.9761 61.7427 11.4266C63.0402 10.963 64.387 11.0069 65.7311 11.0105C68.5965 11.0182 71.4619 11.0088 74.3272 11.0192C76.4192 11.0269 78.4732 11.323 80.5432 11.665C81.8916 11.8877 83.1831 12.3928 84.5569 12.4602C85.6188 12.5124 86.5253 13.124 87.4252 13.6038C89.1628 14.5302 91.0331 15.0642 92.8237 15.8251C93.611 16.1596 94.3671 16.4979 94.9772 17.1563C95.6197 17.8499 96.5291 18.1347 97.3283 18.5495C99.6005 19.7287 101.31 21.5691 102.974 23.4738C104.662 25.4054 106.468 27.2087 108.337 28.9409C111.003 31.4115 112.652 34.5212 113.93 37.9432C114.922 40.5996 115.412 43.3899 116.073 46.1182C116.843 49.296 118.006 52.3885 118.431 55.6301C118.825 58.6281 119.439 61.6616 118.678 64.7264C118.147 66.8655 118.48 69.1536 117.712 71.2623C117.612 71.5358 117.577 71.8384 117.457 72.0999C116.151 74.9433 115.746 78.0684 114.846 81.0335C114.24 83.0303 113.193 84.8941 112.241 86.7605C111.347 88.5144 110.303 90.185 109.352 91.9081C108.23 93.9397 106.74 95.6249 105.034 97.1346C104.444 97.6575 103.87 98.2537 103.453 98.9276C101.808 101.589 99.6504 103.713 97.3549 105.75C94.4 108.372 91.4349 110.956 88.0158 112.91C87.797 113.035 87.5861 113.178 87.3832 113.33C84.8995 115.187 82.1326 116.375 79.1853 117.16C78.3422 117.385 77.4707 117.612 76.7091 118.03C73.3681 119.863 69.7235 120.078 66.0779 120.346C64.0894 120.492 62.106 120.788 60.1168 120.829C58.4739 120.862 56.8252 120.63 55.1805 120.497C54.0613 120.406 52.9465 120.245 51.8263 120.183C48.116 119.979 44.7877 118.415 41.5505 116.776C39.2122 115.592 36.8639 114.357 34.6714 112.853C31.6879 110.806 28.8999 108.516 26.3239 105.934C25.0167 104.623 23.49 103.481 22.5165 101.904C21.3979 100.092 19.9668 98.6308 18.5119 97.0664Z" fill="#E2A52E"/>
</svg>
