<svg width="256" height="256" viewBox="0 0 256 256" fill="none" xmlns="http://www.w3.org/2000/svg">
<path d="M37.0238 194.133C33.1505 189.563 31.8058 183.798 29.3502 178.623C25.8177 171.179 22.6493 163.617 21.5598 155.302C21.1637 152.279 20.7424 149.238 20.6708 146.196C20.5808 142.374 19.4831 138.765 18.9477 135.043C18.8741 134.53 18.7045 134.024 18.6936 133.512C18.5855 128.435 18.3967 123.341 18.4381 118.282C18.52 108.281 18.8142 98.2517 21.7565 88.5383C23.1791 83.8417 23.1036 78.7849 24.6126 74.0532C26.2441 68.9376 27.9657 63.8419 28.9719 58.5218C29.2633 56.9812 30.4801 55.8169 31.4189 54.6229C33.6349 51.8044 36.0438 49.13 39.0563 47.2248C42.0413 45.337 45.2953 45.132 48.6422 46.123C51.4656 46.959 52.7157 49.3627 51.6787 52.2697C51.18 53.6679 50.498 54.9998 49.8407 56.3304C48.754 58.5305 47.3527 60.4145 47.0415 63.1662C46.7518 65.7269 44.6211 67.9004 43.6776 70.4792C43.1489 71.9242 42.4076 73.3175 42.0752 74.8334C41.5007 77.453 39.5816 79.5956 39.3984 82.2635C39.022 87.7455 38.0206 93.114 36.48 98.3095C34.7635 104.098 35.5981 110.047 34.8509 115.889C34.3979 119.432 35.7382 123.101 35.4266 126.766C35.012 131.644 36.071 136.364 37.0401 141.045C37.7198 144.328 38.9829 147.495 40.1529 150.646C41.2812 153.685 42.4448 156.698 43.0162 159.919C43.0835 160.299 43.228 160.674 43.3912 161.023C46.3392 167.337 48.9951 173.825 52.3311 179.907C55.9778 186.556 60.0116 192.967 65.1495 198.602C69.2421 203.091 73.414 207.174 78.9553 209.732C81.7583 211.026 84.3608 213.067 86.6475 215.236C89.7673 218.196 93.5739 219.168 97.3652 220.487C103.271 222.541 109.395 223.228 115.486 224.194C116.673 224.382 117.86 224.505 119.025 224.251C120.647 223.897 122.236 223.974 123.86 224.217C126.74 224.649 129.58 224.404 132.375 223.499C135.767 222.401 139.165 221.891 142.799 221.809C146.758 221.719 150.801 220.59 154.631 219.153C162.496 216.201 169.762 212.019 176.528 206.958C179.552 204.696 182.234 201.924 184.988 199.289C186.055 198.267 187.14 197.289 188.382 196.542C191.24 194.825 193.05 192.055 194.926 189.402C198.069 184.96 201.526 180.77 204.088 175.862C206.59 171.071 209.759 166.657 212.243 161.857C215.442 155.677 219.123 149.395 219.841 142.449C220.414 136.899 221.768 131.513 222.243 125.949C222.645 121.234 222.753 116.672 222.16 111.989C221.826 109.349 221.032 106.78 221 104.111C220.937 98.8446 219.126 94.0764 217.345 89.2731C216.463 86.893 214.779 85.1217 213.42 83.113C208.562 75.9321 203.17 69.1771 197.925 62.3061C196.597 60.5667 195.084 59.0109 193.157 57.9551C189.047 55.7026 185.497 52.5561 181.555 50.0278C177.007 47.1106 172.238 45.0428 166.983 43.6935C161.784 42.3588 156.476 41.7631 151.282 40.3679C144.673 38.5925 137.889 38.8782 131.1 40.4845C125.909 41.7125 121.211 44.4874 115.898 45.2294C114.709 45.3954 113.487 46.0488 112.481 46.7786C107.22 50.5949 101.018 52.9597 96.5669 58.0368C95.6866 59.0408 94.6499 59.8926 93.8586 61.0021C91.656 64.0901 89.1499 66.7484 86.0049 68.941C82.3289 71.5039 80.0227 75.4587 77.9884 79.5908C75.0742 85.51 72.2819 91.4058 71.3602 98.1116C69.9284 108.529 69.2429 118.885 71.9081 129.233C73.1501 134.055 73.1526 139.113 74.3968 143.985C76.2938 151.413 79.575 157.79 84.8565 163.254C88.9939 167.535 93.4183 171.092 98.7016 173.717C101.514 175.115 103.805 177.609 106.659 179.136C111.109 181.518 115.603 183.832 120.345 185.446C124.552 186.877 128.951 186.688 133.309 185.892C134.533 185.668 135.806 185.72 137.022 185.467C144.139 183.988 150.196 180.35 155.686 175.512C158.9 172.679 162.586 170.581 166.34 168.647C167.901 167.844 169.186 166.892 170.105 165.29C171.26 163.279 173.373 162.056 174.388 159.886C176.199 156.014 178.459 152.425 180.85 148.923C183.211 145.465 184.016 141.565 184.193 137.379C184.385 132.821 184.44 128.332 183.502 123.818C183.007 121.44 183.346 118.904 183.195 116.431C182.925 112.02 180.647 108.608 178.845 104.921C177.08 101.311 174.668 98.1423 172.382 94.9124C170.348 92.0381 168.689 88.8752 166.55 86.1355C161.476 79.6364 154.618 76.3068 146.738 75.105C141.375 74.2871 135.998 73.5481 130.589 73.2671C126.598 73.0597 122.633 73.3618 119.333 76.3079C118.502 77.05 117.322 77.3481 116.366 77.9605C108.986 82.6917 103.158 88.8955 100.182 97.5249C99.1809 100.429 99.0488 103.646 98.2396 106.637C97.0537 111.021 96.8587 115.459 96.9686 119.958C97.0012 121.293 97.1517 122.615 97.8038 123.723C98.7617 125.351 98.9941 127.153 99.1791 128.945C99.3339 130.444 99.8297 131.732 100.691 132.864C103.763 136.903 107.135 140.631 110.971 143.913C113.916 146.432 116.645 149.181 120.301 150.687C125.138 152.68 130.107 152.065 135.066 151.879C135.592 151.859 136.126 151.499 136.619 151.225C144.332 146.935 149.255 140.383 151.967 131.691C153.547 126.629 154.213 121.323 153.125 116.511C151.891 111.05 148.845 105.971 143.874 102.764C142.842 102.099 141.739 101.596 140.566 101.468C137.873 101.174 135.159 101.395 132.663 102.47C130.366 103.459 129.384 105.716 129.324 108.158C129.271 110.279 130.577 111.852 132.408 112.671C134.296 113.515 136.067 114.683 138.104 115.128C138.802 115.281 139.191 115.702 139.511 116.287C141.545 120.001 141.468 123.749 139.973 127.674C138.839 130.648 136.14 131.605 134 133.296C133.746 133.497 133.23 133.532 132.908 133.419C129.49 132.219 125.793 133.174 122.387 131.919C121.978 131.768 121.5 131.725 121.163 131.473C118.626 129.579 116.099 127.668 113.604 125.715C112.385 124.761 111.806 123.429 111.743 121.827C111.667 119.882 110.29 118.43 109.921 116.544C108.957 111.617 109.483 107.011 111.965 102.656C112.857 101.091 113.445 99.3214 114.437 97.8389C117.152 93.7833 120.357 90.0832 125.139 88.925C128.498 88.1114 131.987 87.4824 135.517 87.7834C137.992 87.9945 140.102 89.4719 142.507 89.9151C146.115 90.5799 149.374 92.2888 152.684 93.784C156.12 95.336 158.279 98.4824 160.57 101.401C161.162 102.155 161.606 103.033 162.175 103.808C165.951 108.956 167.82 114.809 168.757 121.19C169.195 124.174 168.459 126.847 168.118 129.627C167.929 131.174 168.107 132.741 167.681 134.275C166.288 139.296 163.919 143.721 160.409 147.448C158.879 149.072 157.295 150.601 155.986 152.469C153.849 155.517 151.002 157.851 147.656 159.265C142.566 161.415 137.362 163.303 131.957 164.407C128.445 165.124 124.86 164.798 121.309 164.611C119.57 164.519 117.844 164.092 116.107 164.039C113.944 163.974 112.341 162.808 110.758 161.516C106.39 157.951 102.394 153.896 97.5093 151.012C95.2467 149.676 93.9616 147.155 92.3992 145.105C89.5173 141.323 86.2917 137.678 85.0131 132.792C84.0399 129.073 83.4637 125.304 83.2137 121.463C83.066 119.194 82.854 116.925 82.5527 114.673C81.8939 109.748 83.4135 105.134 84.3542 100.444C84.8605 97.9194 85.5692 95.4387 86.2009 92.9422C86.2794 92.632 86.4032 92.3147 86.5784 92.0535C90.3896 86.3694 93.2787 79.9896 98.326 75.2329C99.2419 74.3697 99.9425 73.2512 100.708 72.2225C103.698 68.2032 107.975 66.1961 112.197 64.0325C117.899 61.111 124.079 60.307 130.201 59.0906C137.746 57.5916 145.252 57.7134 152.614 59.6755C157.653 61.0185 162.589 62.8453 166.101 67.4984C167.637 69.5332 169.895 71.1866 172.133 72.3875C176.433 74.6939 179.206 78.4123 181.95 82.3213C185.904 87.954 189.87 93.5688 192.65 99.9621C194.54 104.308 195.377 109.017 196.788 113.529C198.907 120.306 199.287 127.344 199.26 134.35C199.242 138.991 199.159 143.674 198.279 148.333C197.636 151.737 196.589 154.693 194.824 157.634C192.281 161.871 189.44 165.953 187.108 170.25C184.533 174.995 180.242 177.925 177.418 182.296C176.318 183.999 174.43 185.296 172.667 186.355C168.822 188.663 165.238 191.387 161.442 193.748C156.793 196.64 151.656 198.134 146.262 198.94C140.191 199.848 134.132 200.461 127.999 200.376C121.482 200.285 115.087 199.191 108.738 197.827C105.995 197.237 103.177 197.13 100.478 196.218C99.3464 195.836 98.1241 195.58 97.1912 194.883C93.8963 192.423 90.3723 190.285 87.426 187.321C85.8093 185.694 84.0725 184.193 82.3463 182.69C76.8633 177.915 73.1314 171.763 69.7257 165.348C68.4221 162.892 66.9965 160.518 65.3417 158.297C64.9215 157.733 64.4646 157.144 64.2358 156.487C61.3276 148.132 57.1049 140.285 55.2246 131.541C54.6408 128.827 54.2387 126.05 54.0673 123.247C53.8776 120.144 54.0556 117.044 53.352 113.932C52.6936 111.02 53.4613 107.955 53.7425 104.996C53.9795 102.502 54.5288 100.002 54.8817 97.4963C56.2655 87.6682 60.292 78.8559 64.5159 70.1176C64.7973 69.5356 65.1696 68.9919 65.3845 68.386C67.4079 62.681 71.0411 58.1799 75.1544 54.0206C76.8592 52.2967 78.3733 50.399 79.8736 48.4694C81.8475 45.9308 84.4979 44.0654 87.0883 42.2976C90.6175 39.8891 93.7568 37.0349 96.8698 34.1264C100.211 31.0042 104.205 28.9497 108.08 26.7539C109.826 25.7646 112.062 25.7968 114.07 25.3604C117.251 24.6689 120.41 23.9523 123.485 22.8532C126.08 21.9259 128.774 22.0137 131.462 22.021C137.193 22.0365 142.924 22.0175 148.654 22.0384C152.838 22.0537 156.946 22.6461 161.086 23.33C163.783 23.7755 166.366 24.7856 169.114 24.9204C171.238 25.0247 173.05 26.2481 174.85 27.2076C178.325 29.0603 182.066 30.1285 185.647 31.6502C187.222 32.3192 188.734 32.9959 189.954 34.3127C191.239 35.6997 193.058 36.2695 194.656 37.0989C199.201 39.4574 202.62 43.1381 205.948 46.9477C209.323 50.8109 212.936 54.4175 216.674 57.8817C222.006 62.8229 225.304 69.0423 227.86 75.8865C229.844 81.1993 230.824 86.7799 232.146 92.2365C233.687 98.592 236.011 104.777 236.863 111.26C237.65 117.256 238.878 123.323 237.356 129.453C236.294 133.731 236.96 138.307 235.423 142.525C235.224 143.072 235.154 143.677 234.914 144.2C232.301 149.887 231.491 156.137 229.692 162.067C228.481 166.061 226.387 169.788 224.483 173.521C222.693 177.029 220.606 180.37 218.703 183.816C216.459 187.879 213.479 191.25 210.069 194.269C208.888 195.315 207.739 196.507 206.906 197.855C203.616 203.177 199.301 207.427 194.71 211.5C188.8 216.744 182.87 221.913 176.031 225.82C175.594 226.07 175.172 226.356 174.766 226.66C169.799 230.375 164.265 232.751 158.37 234.32C156.684 234.769 154.941 235.223 153.418 236.059C146.736 239.726 139.447 240.156 132.156 240.692C128.179 240.985 124.212 241.576 120.233 241.657C116.948 241.724 113.65 241.26 110.361 240.994C108.123 240.813 105.893 240.49 103.652 240.367C96.2319 239.958 89.5752 236.829 83.1008 233.551C78.4242 231.184 73.7277 228.713 69.3426 225.705C63.3756 221.612 57.7996 217.032 52.6476 211.868C50.0333 209.247 46.9798 206.961 45.033 203.808C42.7956 200.184 39.9334 197.262 37.0238 194.133Z" fill="#E2A52E"/>
</svg>
