<svg width="24" height="24" viewBox="0 0 24 24" fill="none" xmlns="http://www.w3.org/2000/svg">
<path d="M3.47098 18.1999C3.10787 17.7716 2.9818 17.2311 2.75158 16.7459C2.42041 16.0481 2.12337 15.3391 2.02124 14.5595C1.9841 14.2761 1.9446 13.991 1.93789 13.7059C1.92945 13.3476 1.82654 13.0092 1.77636 12.6603C1.76945 12.6122 1.75355 12.5648 1.75253 12.5168C1.74239 12.0408 1.72469 11.5632 1.72857 11.0889C1.73625 10.1513 1.76384 9.2111 2.03968 8.30046C2.17305 7.86016 2.16597 7.38609 2.30744 6.94249C2.46039 6.4629 2.62179 5.98518 2.71612 5.48642C2.74343 5.34198 2.85752 5.23284 2.94553 5.1209C3.15328 4.85666 3.37911 4.60594 3.66153 4.42733C3.94138 4.25034 4.24644 4.23113 4.56021 4.32403C4.8249 4.40241 4.9421 4.62775 4.84488 4.90029C4.79812 5.03136 4.73419 5.15623 4.67257 5.28098C4.57069 5.48723 4.43932 5.66386 4.41014 5.92183C4.38298 6.1619 4.18323 6.36566 4.09478 6.60743C4.04522 6.74289 3.97572 6.87352 3.94455 7.01563C3.8907 7.26122 3.71078 7.46209 3.6936 7.7122C3.65832 8.22614 3.56444 8.72944 3.42 9.21652C3.25908 9.75923 3.33733 10.3169 3.26728 10.8646C3.2248 11.1967 3.35046 11.5407 3.32124 11.8843C3.28238 12.3416 3.38166 12.7842 3.47252 13.223C3.53623 13.5307 3.65465 13.8277 3.76433 14.1231C3.87012 14.408 3.9792 14.6904 4.03277 14.9924C4.03908 15.028 4.05263 15.0632 4.06793 15.0959C4.3443 15.6878 4.59329 16.2961 4.90605 16.8663C5.24792 17.4896 5.62609 18.0906 6.10777 18.619C6.49145 19.0398 6.88256 19.4225 7.40207 19.6624C7.66484 19.7837 7.90883 19.975 8.12321 20.1784C8.41569 20.4558 8.77256 20.547 9.12799 20.6706C9.68168 20.8633 10.2558 20.9276 10.8268 21.0181C10.9381 21.0358 11.0494 21.0474 11.1586 21.0235C11.3106 20.9903 11.4596 20.9976 11.6119 21.0204C11.8819 21.0608 12.1481 21.0378 12.4101 20.953C12.7281 20.8501 13.0468 20.8023 13.3874 20.7946C13.7585 20.7862 14.1376 20.6803 14.4966 20.5456C15.234 20.2689 15.9152 19.8768 16.5495 19.4023C16.833 19.1903 17.0844 18.9304 17.3426 18.6833C17.4427 18.5875 17.5443 18.4959 17.6608 18.4258C17.9288 18.2648 18.0984 18.0052 18.2744 17.7565C18.569 17.34 18.8931 16.9472 19.1333 16.4871C19.3678 16.0379 19.6649 15.6241 19.8978 15.1741C20.1977 14.5947 20.5428 14.0057 20.6101 13.3546C20.6638 12.8343 20.7908 12.3293 20.8352 11.8077C20.8729 11.3657 20.8831 10.938 20.8275 10.499C20.7962 10.2515 20.7217 10.0106 20.7187 9.76045C20.7128 9.26668 20.5431 8.81966 20.3761 8.36935C20.2934 8.14622 20.1355 7.98016 20.0081 7.79184C19.5527 7.11863 19.0472 6.48535 18.5555 5.8412C18.431 5.67813 18.2891 5.53228 18.1085 5.43329C17.7231 5.22212 17.3903 4.92713 17.0208 4.6901C16.5944 4.41662 16.1473 4.22276 15.6546 4.09627C15.1672 3.97113 14.6696 3.91529 14.1827 3.78449C13.5631 3.61805 12.9271 3.64483 12.2906 3.79542C11.804 3.91054 11.3636 4.17069 10.8654 4.24025C10.7539 4.25582 10.6394 4.31707 10.5451 4.38549C10.0519 4.74327 9.47046 4.96498 9.05315 5.44095C8.97062 5.53508 8.87343 5.61493 8.79924 5.71895C8.59275 6.00845 8.35781 6.25767 8.06297 6.46322C7.71833 6.70349 7.50213 7.07426 7.31141 7.46163C7.03821 8.01656 6.77643 8.56929 6.69002 9.19797C6.55579 10.1746 6.49153 11.1455 6.74139 12.1156C6.85783 12.5677 6.85806 13.0418 6.9747 13.4986C7.15255 14.195 7.46016 14.7928 7.9553 15.3051C8.34318 15.7064 8.75797 16.0399 9.25328 16.286C9.51697 16.4171 9.73173 16.6509 9.99929 16.794C10.4165 17.0173 10.8378 17.2343 11.2824 17.3855C11.6767 17.5197 12.0892 17.502 12.4977 17.4274C12.6125 17.4064 12.7318 17.4112 12.8458 17.3875C13.513 17.2489 14.0809 16.9078 14.5955 16.4542C14.8968 16.1887 15.2424 15.9919 15.5944 15.8107C15.7407 15.7354 15.8612 15.6461 15.9474 15.496C16.0556 15.3074 16.2537 15.1927 16.3488 14.9893C16.5187 14.6263 16.7305 14.2899 16.9547 13.9616C17.1761 13.6373 17.2515 13.2717 17.2681 12.8792C17.2861 12.452 17.2913 12.0311 17.2033 11.608C17.1569 11.385 17.1886 11.1472 17.1745 10.9154C17.1492 10.5019 16.9356 10.182 16.7667 9.83638C16.6013 9.49793 16.3751 9.20084 16.1609 8.89804C15.9702 8.62857 15.8146 8.33205 15.6141 8.0752C15.1384 7.46591 14.4955 7.15376 13.7567 7.04109C13.254 6.96442 12.7498 6.89514 12.2428 6.86879C11.8686 6.84935 11.4969 6.87766 11.1875 7.15387C11.1096 7.22344 10.9989 7.25139 10.9094 7.30879C10.2175 7.75235 9.67107 8.33396 9.39209 9.14296C9.29821 9.41519 9.28583 9.71679 9.20996 9.99724C9.09879 10.4082 9.08051 10.8243 9.09081 11.2461C9.09387 11.3712 9.10797 11.4951 9.16911 11.5991C9.25891 11.7517 9.2807 11.9206 9.29804 12.0886C9.31256 12.2292 9.35904 12.3498 9.43975 12.456C9.72774 12.8346 10.0439 13.1842 10.4036 13.4919C10.6796 13.728 10.9355 13.9857 11.2783 14.1269C11.7317 14.3137 12.1975 14.2561 12.6625 14.2387C12.7117 14.2368 12.7618 14.2031 12.8081 14.1773C13.5311 13.7751 13.9927 13.1609 14.2469 12.3461C14.395 11.8715 14.4575 11.3741 14.3555 10.9229C14.2398 10.411 13.9542 9.93478 13.4882 9.63414C13.3915 9.57176 13.288 9.52458 13.1781 9.51259C12.9256 9.48503 12.6711 9.50582 12.4372 9.60654C12.2218 9.69925 12.1298 9.91087 12.1241 10.1398C12.1192 10.3387 12.2416 10.4861 12.4133 10.5629C12.5902 10.6421 12.7563 10.7515 12.9473 10.7933C13.0127 10.8076 13.0492 10.8471 13.0792 10.9019C13.2699 11.2501 13.2627 11.6015 13.1224 11.9694C13.0162 12.2483 12.7631 12.338 12.5625 12.4965C12.5386 12.5154 12.4903 12.5186 12.4602 12.508C12.1396 12.3955 11.7931 12.4851 11.4738 12.3674C11.4355 12.3533 11.3907 12.3492 11.359 12.3256C11.1212 12.1481 10.8843 11.9689 10.6503 11.7858C10.5361 11.6964 10.4818 11.5715 10.4759 11.4213C10.4688 11.239 10.3397 11.1028 10.3051 10.926C10.2147 10.4641 10.264 10.0323 10.4967 9.624C10.5803 9.4773 10.6354 9.31139 10.7285 9.17239C10.983 8.79218 11.2835 8.4453 11.7318 8.33672C12.0467 8.26045 12.3738 8.20147 12.7047 8.2297C12.9368 8.24949 13.1346 8.38799 13.3601 8.42954C13.6983 8.49187 14.0038 8.65207 14.3142 8.79225C14.6363 8.93775 14.8387 9.23273 15.0535 9.50639C15.1089 9.57705 15.1506 9.65934 15.2039 9.73202C15.5579 10.2146 15.7331 10.7633 15.821 11.3615C15.862 11.6413 15.7931 11.8919 15.7611 12.1526C15.7433 12.2975 15.76 12.4444 15.7201 12.5883C15.5895 13.059 15.3674 13.4738 15.0383 13.8233C14.895 13.9755 14.7464 14.1189 14.6237 14.2939C14.4233 14.5797 14.1565 14.7986 13.8428 14.9311C13.3655 15.1327 12.8777 15.3097 12.371 15.4132C12.0418 15.4804 11.7056 15.4498 11.3727 15.4322C11.2097 15.4236 11.0479 15.3836 10.885 15.3787C10.6822 15.3725 10.5319 15.2632 10.3836 15.1421C9.97408 14.8079 9.59942 14.4277 9.1415 14.1574C8.92938 14.0322 8.80891 13.7958 8.66243 13.6036C8.39226 13.2491 8.08985 12.9073 7.96998 12.4493C7.87874 12.1006 7.82472 11.7472 7.80128 11.3872C7.78744 11.1745 7.76757 10.9617 7.73932 10.7506C7.67755 10.2889 7.82002 9.85634 7.90821 9.41662C7.95567 9.17994 8.02211 8.94738 8.08134 8.71333C8.08869 8.68425 8.10031 8.65451 8.11673 8.63002C8.47403 8.09713 8.74488 7.49902 9.21807 7.05308C9.30393 6.97216 9.36962 6.8673 9.44136 6.77086C9.7217 6.39405 10.1226 6.20588 10.5185 6.00305C11.0531 5.72916 11.6324 5.65378 12.2064 5.53974C12.9137 5.39921 13.6174 5.41064 14.3076 5.59458C14.78 5.72048 15.2427 5.89175 15.572 6.32797C15.7159 6.51874 15.9276 6.67374 16.1375 6.78633C16.5406 7.00256 16.8006 7.35116 17.0578 7.71762C17.4285 8.24569 17.8003 8.77208 18.0609 9.37145C18.2381 9.7789 18.3166 10.2203 18.4489 10.6433C18.6475 11.2787 18.6832 11.9385 18.6806 12.5953C18.6789 13.0304 18.6711 13.4694 18.5886 13.9062C18.5283 14.2253 18.4302 14.5024 18.2647 14.7782C18.0263 15.1754 17.76 15.5581 17.5414 15.9609C17.2999 16.4058 16.8977 16.6804 16.633 17.0902C16.5299 17.2499 16.3528 17.3715 16.1875 17.4707C15.8271 17.6871 15.4911 17.9425 15.1352 18.1639C14.6994 18.435 14.2178 18.5751 13.712 18.6507C13.1429 18.7357 12.5748 18.7932 11.9999 18.7852C11.389 18.7768 10.7894 18.6742 10.1942 18.5462C9.93701 18.491 9.6728 18.4809 9.41978 18.3955C9.31373 18.3596 9.19914 18.3356 9.11167 18.2703C8.80278 18.0397 8.47241 17.8393 8.1962 17.5614C8.04463 17.4089 7.8818 17.2681 7.71997 17.1272C7.20593 16.6795 6.85607 16.1028 6.53678 15.5013C6.41457 15.2711 6.28092 15.0486 6.12579 14.8403C6.08639 14.7875 6.04356 14.7323 6.02211 14.6707C5.74947 13.8874 5.35358 13.1517 5.17731 12.332C5.12258 12.0775 5.08489 11.8172 5.06882 11.5544C5.05103 11.2635 5.06772 10.9728 5.00176 10.6811C4.94002 10.4081 5.012 10.1208 5.03836 9.84337C5.06058 9.60955 5.11208 9.37522 5.14516 9.14028C5.27489 8.21889 5.65238 7.39274 6.04837 6.57352C6.07475 6.51896 6.10965 6.46799 6.1298 6.41119C6.3195 5.87634 6.6601 5.45437 7.04573 5.06443C7.20556 4.90281 7.3475 4.7249 7.48816 4.544C7.67321 4.30601 7.92168 4.13113 8.16453 3.9654C8.49539 3.7396 8.7897 3.47203 9.08155 3.19935C9.39483 2.90665 9.76927 2.71403 10.1325 2.50818C10.2962 2.41543 10.5059 2.41845 10.6941 2.37754C10.9923 2.31271 11.2884 2.24552 11.5767 2.14249C11.82 2.05556 12.0725 2.06379 12.3246 2.06447C12.8618 2.06592 13.3991 2.06414 13.9364 2.0661C14.3286 2.06754 14.7137 2.12307 15.1018 2.18719C15.3547 2.22895 15.5968 2.32365 15.8544 2.33629C16.0535 2.34607 16.2235 2.46076 16.3922 2.55071C16.718 2.72441 17.0687 2.82454 17.4044 2.96721C17.552 3.02993 17.6938 3.09336 17.8082 3.21682C17.9287 3.34685 18.0992 3.40026 18.249 3.47803C18.6751 3.69913 18.9956 4.0442 19.3076 4.40134C19.6241 4.76352 19.9628 5.10164 20.3132 5.42641C20.8131 5.88965 21.1223 6.47272 21.3619 7.11436C21.5479 7.61243 21.6397 8.13561 21.7637 8.64717C21.9081 9.243 22.1261 9.82284 22.2059 10.4306C22.2797 10.9928 22.3948 11.5616 22.2521 12.1362C22.1526 12.5373 22.215 12.9663 22.0709 13.3617C22.0522 13.413 22.0457 13.4697 22.0232 13.5187C21.7782 14.0519 21.7023 14.6378 21.5336 15.1938C21.4201 15.5682 21.2237 15.9176 21.0452 16.2676C20.8775 16.5965 20.6818 16.9097 20.5034 17.2328C20.2931 17.6137 20.0137 17.9297 19.6939 18.2127C19.5832 18.3108 19.4755 18.4226 19.3974 18.5489C19.089 19.0479 18.6844 19.4463 18.254 19.8281C17.7 20.3197 17.144 20.8043 16.503 21.1706C16.4619 21.1941 16.4224 21.2209 16.3843 21.2493C15.9187 21.5976 15.3998 21.8204 14.8472 21.9675C14.6892 22.0096 14.5258 22.0522 14.383 22.1306C13.7565 22.4743 13.0731 22.5147 12.3896 22.5649C12.0168 22.5923 11.6449 22.6477 11.2719 22.6554C10.9639 22.6616 10.6547 22.6181 10.3463 22.5932C10.1365 22.5762 9.92746 22.546 9.71742 22.5344C9.02174 22.4961 8.39768 22.2027 7.7907 21.8954C7.35227 21.6735 6.91197 21.4419 6.50087 21.1599C5.94146 20.7761 5.41872 20.3468 4.93572 19.8626C4.69062 19.6169 4.40436 19.4026 4.22184 19.107C4.0121 18.7673 3.74376 18.4933 3.47098 18.1999Z" fill="#E2A52E"/>
</svg>
